<svg xmlns="http://www.w3.org/2000/svg" xmlns:xlink="http://www.w3.org/1999/xlink" viewBox="0 0 279 279" width="24" height="24">
  <defs>
    <!-- Instagram-inspired gradients -->
    <linearGradient id="instagramGradient1" x1="0%" y1="0%" x2="100%" y2="100%">
      <stop offset="0%" style="stop-color:#833AB4" /> <!-- Purple -->
      <stop offset="50%" style="stop-color:#FD1D1D" /> <!-- Red -->
      <stop offset="100%" style="stop-color:#FCAF45" /> <!-- Yellow/Orange -->
    </linearGradient>
    
    <linearGradient id="instagramGradient2" x1="0%" y1="100%" x2="100%" y2="0%">
      <stop offset="0%" style="stop-color:#833AB4" /> <!-- Purple -->
      <stop offset="50%" style="stop-color:#E1306C" /> <!-- Pink -->
      <stop offset="100%" style="stop-color:#FCAF45" /> <!-- Yellow/Orange -->
    </linearGradient>
    
    <linearGradient id="instagramGradient3" x1="100%" y1="0%" x2="0%" y2="100%">
      <stop offset="0%" style="stop-color:#FCAF45" /> <!-- Yellow/Orange -->
      <stop offset="50%" style="stop-color:#FD1D1D" /> <!-- Red -->
      <stop offset="100%" style="stop-color:#833AB4" /> <!-- Purple -->
    </linearGradient>
  </defs>
  
  <!-- Main icon elements with smoother paths and Instagram gradient colors -->
  <g transform="translate(0,279) scale(0.1,-0.1)">
    <!-- Left arc element -->
    <path d="M1135 2730 c-27 -4 -66 -12 -85 -19 -19 -6 -51 -17 -70 -23 -80 -24 -216 -90 -335 -162 -144 -88 -324 -271 -422 -431 -35 -57 -94 -178 -118 -245 -31 -82 -75 -265 -73 -295 l3 -30 111 -3 c82 -2 114 1 122 11 6 7 15 41 21 75 27 168 143 397 270 531 87 93 205 181 318 237 63 31 129 60 146 64 18 5 65 18 104 29 40 12 83 21 97 21 22 0 24 5 29 66 2 37 2 93 0 125 -6 59 -6 59 -37 58 -17 -1 -53 -5 -81 -9z"
       style="fill:url(#instagramGradient1)" />
    
    <!-- Right arc element -->
    <path d="M1542 2618 l3 -122 40 -7 c70 -13 257 -80 340 -122 143 -73 278 -190 376 -324 64 -89 130 -209 150 -273 33 -108 48 -168 49 -192 0 -49 21 -58 133 -58 56 0 107 4 114 8 12 8 10 27 -18 142 -7 25 -15 61 -19 80 -20 87 -90 247 -154 351 -117 188 -262 332 -446 445 -97 59 -232 122 -320 149 -30 9 -66 21 -80 25 -14 5 -58 11 -98 15 l-73 6 3 -123z"
       style="fill:url(#instagramGradient2)" />
    
    <!-- Central 'P' element with improved shape -->
    <path d="M1445 2076 c-60 -16 -107 -42 -134 -70 -38 -41 -65 -35 -77 17 l-9 42 -105 3 c-58 2 -115 0 -127 -3 l-23 -5 0 -765 c0 -420 4 -766 8 -769 5 -3 67 -6 138 -7 l129 -1 5 250 c3 156 9 255 16 262 7 7 20 2 45 -16 68 -51 158 -83 236 -84 92 -1 200 46 271 117 52 52 122 178 122 220 0 10 7 40 15 67 32 106 15 351 -34 481 -67 179 -201 276 -376 273 -33 0 -78 -6 -100 -12z m137 -249 c28 -21 53 -53 73 -92 30 -59 30 -62 29 -215 -1 -121 -5 -166 -19 -205 -38 -108 -102 -155 -207 -155 -74 0 -129 23 -173 69 l-30 32 -3 222 c-2 122 -1 236 3 253 3 17 18 44 33 61 45 50 78 62 169 63 77 0 84 -2 125 -33z"
       style="fill:url(#instagramGradient3)" />
    
    <!-- Bottom left arc -->
    <path d="M33 1224 c-11 -29 51 -280 92 -369 7 -16 23 -50 34 -75 89 -194 284 -423 453 -534 48 -31 96 -59 105 -63 10 -4 34 -16 53 -28 33 -20 150 -71 215 -93 58 -21 151 -41 208 -46 l57 -5 0 123 0 123 -72 12 c-40 7 -91 19 -113 27 -23 8 -46 14 -53 14 -30 0 -195 89 -277 150 -206 153 -332 324 -410 555 -15 44 -30 106 -35 138 -13 86 -15 87 -142 87 -89 0 -110 -3 -115 -16z"
       style="fill:url(#instagramGradient1)" />
    
    <!-- Bottom right arc with a smooth transition -->
    <path d="M2523 1232 c-6 -4 -14 -25 -18 -47 -44 -277 -206 -537 -446 -715 -83 -62 -237 -146 -294 -161 -61 -16 -111 -28 -167 -39 l-58 -11 0 -121 0 -120 68 5 c217 14 543 177 733 366 188 188 309 394 382 651 22 78 39 179 32 190 -7 12 -214 13 -232 2z"
       style="fill:url(#instagramGradient2)" />
  </g>
</svg>